<mxfile host="app.diagrams.net" modified="2022-11-30T11:02:59.463Z" agent="5.0 (Macintosh; Intel Mac OS X 10_15_7) AppleWebKit/537.36 (KHTML, like Gecko) Chrome/107.0.0.0 Safari/537.36" etag="lf_jlP-e6z2TJowHL0Dz" version="20.5.3" type="github">
  <diagram id="aU3LlI7BI3JMirQAzEiF" name="第 1 页">
    <mxGraphModel dx="1425" dy="801" grid="1" gridSize="10" guides="1" tooltips="1" connect="1" arrows="1" fold="1" page="1" pageScale="1" pageWidth="827" pageHeight="1169" math="0" shadow="0">
      <root>
        <mxCell id="0" />
        <mxCell id="1" parent="0" />
        <mxCell id="FrQW7oxbEgU2IKvYySrV-23" value="" style="whiteSpace=wrap;html=1;aspect=fixed;strokeWidth=2;" vertex="1" parent="1">
          <mxGeometry x="470" y="120" width="170" height="170" as="geometry" />
        </mxCell>
        <mxCell id="FrQW7oxbEgU2IKvYySrV-22" value="" style="whiteSpace=wrap;html=1;aspect=fixed;strokeWidth=2;" vertex="1" parent="1">
          <mxGeometry x="105" y="120" width="170" height="170" as="geometry" />
        </mxCell>
        <mxCell id="FrQW7oxbEgU2IKvYySrV-5" value="Push Replication" style="edgeStyle=orthogonalEdgeStyle;rounded=0;orthogonalLoop=1;jettySize=auto;html=1;entryX=0;entryY=0.5;entryDx=0;entryDy=0;curved=1;strokeWidth=2;fillColor=#d5e8d4;strokeColor=#82b366;" edge="1" parent="1" source="FrQW7oxbEgU2IKvYySrV-1" target="FrQW7oxbEgU2IKvYySrV-2">
          <mxGeometry relative="1" as="geometry" />
        </mxCell>
        <mxCell id="FrQW7oxbEgU2IKvYySrV-1" value="oppo-zeku-un" style="rounded=1;whiteSpace=wrap;html=1;" vertex="1" parent="1">
          <mxGeometry x="120" y="240" width="140" height="30" as="geometry" />
        </mxCell>
        <mxCell id="FrQW7oxbEgU2IKvYySrV-2" value="oppo-zeku-un" style="rounded=1;whiteSpace=wrap;html=1;" vertex="1" parent="1">
          <mxGeometry x="485" y="190" width="140" height="30" as="geometry" />
        </mxCell>
        <mxCell id="FrQW7oxbEgU2IKvYySrV-7" value="zeku-oppo-un" style="rounded=1;whiteSpace=wrap;html=1;" vertex="1" parent="1">
          <mxGeometry x="120" y="190" width="140" height="30" as="geometry" />
        </mxCell>
        <mxCell id="FrQW7oxbEgU2IKvYySrV-9" value="Push Replication" style="edgeStyle=orthogonalEdgeStyle;rounded=0;orthogonalLoop=1;jettySize=auto;html=1;entryX=1;entryY=0.5;entryDx=0;entryDy=0;curved=1;strokeWidth=2;fillColor=#d5e8d4;strokeColor=#82b366;" edge="1" parent="1" source="FrQW7oxbEgU2IKvYySrV-8" target="FrQW7oxbEgU2IKvYySrV-7">
          <mxGeometry relative="1" as="geometry">
            <mxPoint x="420" y="205.0000000000001" as="targetPoint" />
          </mxGeometry>
        </mxCell>
        <mxCell id="FrQW7oxbEgU2IKvYySrV-8" value="zeku-oppo-un" style="rounded=1;whiteSpace=wrap;html=1;" vertex="1" parent="1">
          <mxGeometry x="485" y="140" width="140" height="30" as="geometry" />
        </mxCell>
        <mxCell id="FrQW7oxbEgU2IKvYySrV-16" style="edgeStyle=none;rounded=0;orthogonalLoop=1;jettySize=auto;html=1;entryX=0;entryY=0.5;entryDx=0;entryDy=0;strokeWidth=2;fillColor=#dae8fc;strokeColor=#6c8ebf;" edge="1" parent="1" source="FrQW7oxbEgU2IKvYySrV-13" target="FrQW7oxbEgU2IKvYySrV-8">
          <mxGeometry relative="1" as="geometry" />
        </mxCell>
        <mxCell id="FrQW7oxbEgU2IKvYySrV-17" value="Proxy" style="edgeLabel;html=1;align=center;verticalAlign=middle;resizable=0;points=[];" vertex="1" connectable="0" parent="FrQW7oxbEgU2IKvYySrV-16">
          <mxGeometry x="-0.1724" y="1" relative="1" as="geometry">
            <mxPoint as="offset" />
          </mxGeometry>
        </mxCell>
        <mxCell id="FrQW7oxbEgU2IKvYySrV-13" value="oppo-zeku-un-remote" style="rounded=1;whiteSpace=wrap;html=1;dashed=1;" vertex="1" parent="1">
          <mxGeometry x="120" y="140" width="140" height="30" as="geometry" />
        </mxCell>
        <mxCell id="FrQW7oxbEgU2IKvYySrV-19" value="Proxy" style="edgeStyle=none;rounded=0;orthogonalLoop=1;jettySize=auto;html=1;entryX=1;entryY=0.5;entryDx=0;entryDy=0;strokeWidth=2;fillColor=#dae8fc;strokeColor=#6c8ebf;" edge="1" parent="1" source="FrQW7oxbEgU2IKvYySrV-18" target="FrQW7oxbEgU2IKvYySrV-1">
          <mxGeometry relative="1" as="geometry" />
        </mxCell>
        <mxCell id="FrQW7oxbEgU2IKvYySrV-18" value="zeku-oppo-un-remote" style="rounded=1;whiteSpace=wrap;html=1;dashed=1;" vertex="1" parent="1">
          <mxGeometry x="485" y="240" width="140" height="30" as="geometry" />
        </mxCell>
        <mxCell id="FrQW7oxbEgU2IKvYySrV-24" value="oppo-zeku-un-vr" style="text;html=1;align=center;verticalAlign=middle;resizable=0;points=[];autosize=1;strokeColor=none;fillColor=none;" vertex="1" parent="1">
          <mxGeometry x="135" y="90" width="110" height="30" as="geometry" />
        </mxCell>
        <mxCell id="FrQW7oxbEgU2IKvYySrV-26" value="zeku-oppo-un-vr" style="text;html=1;align=center;verticalAlign=middle;resizable=0;points=[];autosize=1;strokeColor=none;fillColor=none;" vertex="1" parent="1">
          <mxGeometry x="500" y="90" width="110" height="30" as="geometry" />
        </mxCell>
        <mxCell id="FrQW7oxbEgU2IKvYySrV-27" value="联邦仓库替代方案" style="text;html=1;align=center;verticalAlign=middle;resizable=0;points=[];autosize=1;strokeColor=none;fillColor=none;fontSize=18;" vertex="1" parent="1">
          <mxGeometry x="290" y="45" width="170" height="40" as="geometry" />
        </mxCell>
        <mxCell id="FrQW7oxbEgU2IKvYySrV-28" value="图例" style="text;html=1;align=center;verticalAlign=middle;resizable=0;points=[];autosize=1;strokeColor=none;fillColor=none;fontSize=12;fontColor=#6E6E6E;" vertex="1" parent="1">
          <mxGeometry x="715" y="130" width="50" height="30" as="geometry" />
        </mxCell>
        <mxCell id="FrQW7oxbEgU2IKvYySrV-29" value="远程仓库" style="rounded=1;whiteSpace=wrap;html=1;dashed=1;fontColor=#6E6E6E;" vertex="1" parent="1">
          <mxGeometry x="710" y="160" width="60" height="30" as="geometry" />
        </mxCell>
        <mxCell id="FrQW7oxbEgU2IKvYySrV-30" value="本地仓库" style="rounded=1;whiteSpace=wrap;html=1;fontColor=#6E6E6E;" vertex="1" parent="1">
          <mxGeometry x="710" y="200" width="60" height="30" as="geometry" />
        </mxCell>
        <mxCell id="FrQW7oxbEgU2IKvYySrV-32" value="虚拟仓库" style="rounded=0;whiteSpace=wrap;html=1;strokeWidth=2;fontSize=12;fontColor=#6E6E6E;strokeColor=#6E6E6E;" vertex="1" parent="1">
          <mxGeometry x="710" y="240" width="60" height="30" as="geometry" />
        </mxCell>
      </root>
    </mxGraphModel>
  </diagram>
</mxfile>
